<?xml version="1.0" standalone="no"?>
<!DOCTYPE svg PUBLIC "-//W3C//DTD SVG 20010904//EN"
 "http://www.w3.org/TR/2001/REC-SVG-20010904/DTD/svg10.dtd">
<svg version="1.0" xmlns="http://www.w3.org/2000/svg"
 width="250.000000pt" height="150.000000pt" viewBox="0 0 250.000000 150.000000"
 preserveAspectRatio="xMidYMid meet">

<g transform="translate(0.000000,150.000000) scale(0.100000,-0.100000)"
fill="#000000" stroke="none">
<path d="M170 765 l0 -625 1085 0 1085 0 0 625 0 625 -1085 0 -1085 0 0 -625z
m219 541 c-11 -9 -69 -14 -69 -6 0 6 17 10 37 10 20 0 34 -2 32 -4z m651 -10
c0 -16 -21 -26 -58 -26 -53 0 -71 -11 -77 -44 -17 -106 -45 -288 -50 -328 -6
-48 -20 -67 -36 -51 -5 5 -23 65 -40 133 -17 69 -35 132 -39 140 -8 15 -9 14
-39 -195 -12 -84 -20 -110 -31 -110 -10 0 -20 23 -33 75 -9 41 -24 100 -32
130 -8 30 -21 87 -31 127 l-16 72 -31 -6 c-56 -10 -215 -51 -227 -58 -19 -12
1 -25 38 -25 20 0 59 7 86 15 62 19 86 19 86 0 0 -15 -67 -39 -143 -50 -60 -9
-117 14 -117 48 0 40 4 42 218 93 112 27 132 24 132 -20 0 -12 7 -49 16 -81 9
-33 22 -88 29 -123 6 -34 14 -65 17 -68 6 -5 18 65 39 219 6 48 14 89 18 91
15 9 29 -11 39 -54 16 -71 52 -213 58 -230 9 -24 22 17 29 96 4 38 15 105 24
149 16 79 16 80 51 86 68 12 120 10 120 -5z m1200 -164 l0 -179 -39 -11 c-70
-22 -77 -18 -85 41 -3 28 -6 88 -6 132 -1 84 -16 143 -46 176 -17 19 -15 19
79 19 l97 0 0 -178z m-885 103 c21 -20 25 -34 25 -80 0 -32 -4 -55 -11 -55 -5
0 -7 -4 -4 -10 3 -5 2 -10 -4 -10 -6 0 -11 30 -13 68 l-3 67 -43 0 c-45 0 -57
11 -19 18 20 4 20 4 1 6 -32 2 -54 -21 -60 -61 -11 -62 1 -82 75 -133 78 -53
87 -71 72 -148 -6 -32 -16 -54 -31 -64 -18 -12 -19 -17 -9 -25 11 -7 9 -8 -4
-4 -10 3 -34 6 -54 6 -25 0 -43 8 -64 30 -26 25 -30 36 -27 72 2 30 7 43 18
43 11 0 14 -10 12 -40 -4 -49 22 -78 70 -78 44 0 68 33 68 92 0 36 -5 49 -21
59 -16 10 -19 10 -13 1 4 -7 -4 -4 -18 7 -14 10 -24 22 -22 25 2 4 -3 6 -12 5
-9 0 -21 8 -28 19 -6 10 -17 25 -23 33 -8 8 -13 40 -13 78 0 81 19 104 85 104
35 0 52 -6 70 -25z m421 -14 c-4 -6 -36 -11 -72 -11 l-64 0 0 -80 0 -80 55 0
c89 0 69 -20 -35 -33 -10 -2 -15 -14 -15 -40 l0 -39 55 7 c30 4 65 13 78 22
13 8 30 12 38 9 9 -3 12 -2 9 5 -4 6 -7 26 -7 45 0 25 -4 34 -16 34 -15 1 -15
2 1 14 9 7 17 21 17 31 0 14 -3 15 -15 5 -9 -7 -18 -10 -21 -7 -3 3 4 10 15
17 24 12 29 45 6 36 -8 -3 -15 -1 -15 4 0 6 7 10 15 10 8 0 15 9 15 20 0 18
-3 19 -22 9 -17 -9 -15 -4 9 19 29 29 37 32 96 32 56 0 68 -3 91 -27 34 -34
37 -49 34 -162 -2 -64 -7 -96 -15 -99 -10 -3 -13 23 -13 105 0 136 -10 153
-95 153 l-55 0 0 -126 0 -126 39 7 c26 4 41 2 46 -5 11 -18 -9 -26 -94 -39
-42 -7 -114 -19 -161 -26 -247 -42 -274 -45 -284 -35 -13 13 2 27 34 32 23 3
26 8 31 68 4 36 7 104 8 153 l1 87 -40 0 c-29 0 -40 4 -40 15 0 13 15 15 92
13 62 -2 93 -7 96 -15 2 -9 -9 -13 -36 -13 l-39 0 -5 -147 c-3 -82 -5 -149 -4
-150 1 -1 30 3 64 10 l62 12 0 77 c0 56 -4 78 -12 78 -10 0 -10 2 -1 8 8 5 12
27 11 53 -2 93 -6 88 75 91 74 3 94 -2 83 -21z m-783 12 c-7 -2 -19 -2 -25 0
-7 3 -2 5 12 5 14 0 19 -2 13 -5z m47 -68 c69 -264 83 -305 107 -305 24 0 33
-27 11 -35 -7 -2 -101 -21 -208 -40 -107 -20 -231 -43 -275 -51 -153 -29 -157
-29 -153 -8 3 15 21 22 98 35 52 9 133 24 180 33 47 8 131 24 187 34 57 10
105 20 107 23 9 10 -21 74 -34 72 -73 -8 -90 -15 -90 -36 0 -29 -15 -51 -29
-43 -6 4 -9 11 -6 15 2 5 11 51 20 102 23 149 43 247 50 260 10 15 22 -4 35
-56z m34 49 c3 -8 2 -12 -4 -9 -6 3 -10 10 -10 16 0 14 7 11 14 -7z m-127 -26
c-3 -7 -5 -2 -5 12 0 14 2 19 5 13 2 -7 2 -19 0 -25z m-428 -185 c5 -21 15
-64 21 -95 6 -32 12 -61 13 -65 1 -4 -20 -12 -47 -19 -58 -15 -66 -25 -66 -86
0 -62 14 -96 43 -103 22 -6 23 -8 19 -101 l-4 -94 40 -40 c26 -26 49 -40 66
-40 23 0 26 -4 26 -32 0 -18 4 -50 9 -70 l9 -38 -164 0 -164 0 0 395 0 395 43
0 c23 0 62 7 87 14 61 20 58 21 69 -21z m1091 -33 c0 -5 -5 -10 -11 -10 -5 0
-7 5 -4 10 3 6 8 10 11 10 2 0 4 -4 4 -10z m427 -57 c-4 -21 -15 -49 -26 -63
-16 -21 -26 -25 -70 -25 -51 1 -79 14 -67 34 4 7 19 5 45 -4 51 -18 76 -1 86
55 4 26 12 40 22 40 12 0 14 -8 10 -37z m-373 -69 c5 -13 19 -15 73 -12 47 2
68 -1 70 -9 4 -10 -17 -13 -81 -13 -85 0 -86 0 -86 25 0 28 15 34 24 9z m596
-3 c0 -15 -10 -20 -50 -26 -48 -7 -50 -8 -51 -38 -1 -18 -4 -113 -8 -212 l-6
-180 -25 0 c-20 0 -25 5 -24 25 1 14 4 107 8 208 l8 183 -29 -8 c-47 -12 -78
-9 -78 7 0 10 16 18 50 23 28 5 75 15 105 22 81 19 100 18 100 -4z m-295 -138
c-3 -49 -8 -146 -11 -216 -8 -179 -12 -176 -120 103 -20 52 -40 99 -45 105 -5
5 -9 -55 -9 -145 0 -142 -8 -195 -26 -178 -15 16 6 400 22 405 7 2 20 -18 30
-44 9 -26 20 -52 24 -58 4 -5 27 -62 51 -125 l44 -115 6 120 c4 66 7 146 8
178 1 44 4 57 16 57 13 0 15 -13 10 -87z m-499 61 c-3 -9 -6 -21 -6 -27 0 -12
-29 23 -30 36 0 4 9 7 21 7 15 0 19 -4 15 -16z m234 -8 c0 -10 -16 -17 -47
-21 -88 -12 -84 -8 -81 -88 l3 -72 58 3 c47 3 57 1 57 -12 0 -11 -9 -16 -32
-16 -57 0 -77 -10 -80 -39 -2 -14 -7 -26 -13 -26 -12 0 -26 129 -23 205 l3 55
65 11 c89 16 90 16 90 0z m-618 -13 c38 -35 6 -135 -48 -149 -14 -4 -58 -1
-97 5 -82 14 -77 16 -141 -90 -81 -136 -65 -287 29 -263 14 3 34 17 44 30 19
24 41 32 41 15 0 -5 -13 -23 -29 -40 -24 -26 -37 -31 -74 -31 -37 0 -49 5 -66
26 -11 14 -23 42 -27 61 -13 70 34 206 96 276 18 21 30 40 27 43 -11 12 -145
8 -169 -4 -23 -13 -58 -60 -58 -79 0 -5 13 -8 29 -5 23 3 32 -1 41 -18 19 -35
-2 -70 -40 -70 -88 0 -72 152 23 224 70 53 163 53 299 -1 78 -30 101 -26 106
21 4 32 -20 44 -54 26 -31 -17 -42 -6 -19 20 22 24 62 26 87 3z m296 -164 c2
-85 0 -111 -9 -102 -6 6 -14 59 -17 118 -4 90 -3 107 9 103 11 -4 15 -32 17
-119z m-175 59 c8 -29 27 -106 42 -170 19 -81 32 -118 41 -118 8 0 14 -7 14
-15 0 -22 -47 -19 -53 3 -3 9 -10 38 -17 63 l-12 47 -41 -5 c-61 -7 -61 -6
-75 -59 -21 -74 -21 -74 -32 -74 -13 0 -13 17 1 79 13 61 23 70 88 78 28 3 51
9 51 13 0 24 -24 120 -30 120 -4 0 -13 -27 -19 -60 -11 -55 -19 -69 -33 -55
-11 11 39 205 53 205 4 0 14 -24 22 -52z m1037 -218 l0 -200 -630 0 c-504 0
-628 3 -625 13 4 9 26 11 78 9 58 -3 77 -1 90 12 15 16 18 16 42 0 28 -18 41
-18 438 16 106 9 194 27 203 41 3 5 17 0 31 -11 45 -36 153 -22 153 20 0 5 12
2 28 -6 48 -25 153 -14 174 19 4 7 8 74 8 150 0 75 2 137 5 137 3 0 5 -90 5
-200z m-1302 56 c11 -37 -4 -146 -19 -146 -6 0 -7 15 -2 38 10 47 9 89 -2 126
-5 20 -5 27 3 22 6 -4 15 -22 20 -40z m-54 12 c30 -42 10 -188 -25 -188 -12 0
-10 11 13 88 11 38 10 47 -5 74 -9 16 -17 34 -17 39 0 16 19 9 34 -13z m470
-38 c3 -16 9 -44 12 -61 l6 -32 59 7 c46 4 59 3 59 -8 0 -9 -18 -15 -52 -20
-97 -11 -95 -13 -107 87 -6 42 -4 57 5 57 7 0 15 -13 18 -30z m200 8 c3 -13 6
-36 6 -51 l0 -29 75 7 c54 5 75 4 75 -4 0 -16 -36 -28 -103 -33 -35 -3 -61 0
-66 6 -4 6 -11 37 -14 69 -4 43 -2 57 8 57 7 0 15 -10 19 -22z"/>
<path d="M1001 1074 c-6 -43 -15 -92 -18 -108 -6 -29 -6 -29 33 -21 21 4 42 9
45 11 6 3 -24 127 -44 188 -2 5 -9 -26 -16 -70z"/>
</g>
</svg>
