<?xml version="1.0" standalone="no"?>
<!DOCTYPE svg PUBLIC "-//W3C//DTD SVG 20010904//EN"
 "http://www.w3.org/TR/2001/REC-SVG-20010904/DTD/svg10.dtd">
<svg version="1.0" xmlns="http://www.w3.org/2000/svg"
 width="246.000000pt" height="253.000000pt" viewBox="0 0 246.000000 253.000000"
 preserveAspectRatio="xMidYMid meet">

<g transform="translate(0.000000,253.000000) scale(0.100000,-0.100000)"
fill="#000000" stroke="none">
<path d="M1760 1210 c-8 -5 -12 -11 -9 -14 2 -3 11 -1 19 4 8 5 12 11 9 14 -2
3 -11 1 -19 -4z"/>
<path d="M1880 1183 c0 -4 5 -15 10 -23 8 -13 10 -13 10 2 0 9 -4 20 -10 23
-5 3 -10 3 -10 -2z"/>
<path d="M1191 1129 c-13 -5 -22 -12 -19 -14 6 -6 58 12 58 20 0 7 -11 5 -39
-6z"/>
<path d="M1300 1120 c-24 -15 -8 -17 30 -4 30 11 32 13 10 13 -14 1 -32 -3
-40 -9z"/>
<path d="M1420 1090 c-11 -7 -5 -8 20 -4 43 8 51 14 19 14 -13 0 -31 -5 -39
-10z"/>
<path d="M1123 1079 c-18 -5 -33 -14 -33 -19 0 -6 9 -6 23 -1 12 5 38 14 57
19 28 8 30 10 10 10 -14 0 -40 -4 -57 -9z"/>
<path d="M1220 1079 c0 -5 5 -7 10 -4 6 3 10 8 10 11 0 2 -4 4 -10 4 -5 0 -10
-5 -10 -11z"/>
<path d="M1260 1081 c0 -4 29 -13 65 -19 36 -7 124 -30 197 -52 161 -49 240
-64 281 -53 26 6 16 9 -53 14 -53 4 -129 21 -200 43 -133 41 -290 77 -290 67z"/>
<path d="M1545 1050 c-4 -6 6 -7 27 -3 44 8 48 13 10 13 -17 0 -34 -4 -37 -10z"/>
<path d="M1670 1020 c-13 -9 -13 -10 0 -9 8 0 24 4 35 9 l20 9 -20 0 c-11 0
-27 -4 -35 -9z"/>
<path d="M967 972 c-19 -20 -23 -37 -7 -27 10 6 33 45 27 45 -2 0 -11 -8 -20
-18z"/>
<path d="M880 765 c0 -25 3 -45 8 -45 4 0 7 20 7 45 0 25 -3 45 -7 45 -5 0 -8
-20 -8 -45z"/>
<path d="M954 759 c-4 -7 0 -9 14 -5 12 4 32 2 44 -5 21 -11 22 -11 9 4 -15
19 -56 23 -67 6z"/>
<path d="M1026 661 c-4 -6 -21 -15 -39 -20 -29 -8 -30 -9 -6 -10 27 -1 68 23
57 34 -3 3 -9 2 -12 -4z"/>
</g>
</svg>
