<?xml version="1.0" standalone="no"?>
<!DOCTYPE svg PUBLIC "-//W3C//DTD SVG 20010904//EN"
 "http://www.w3.org/TR/2001/REC-SVG-20010904/DTD/svg10.dtd">
<svg version="1.0" xmlns="http://www.w3.org/2000/svg"
 width="640.000000pt" height="132.000000pt" viewBox="0 0 640.000000 132.000000"
 preserveAspectRatio="xMidYMid meet">

<g transform="translate(0.000000,132.000000) scale(0.100000,-0.100000)"
fill="#000000" stroke="none">
<path d="M0 1109 l0 -210 23 7 c12 3 80 28 152 55 71 27 133 45 136 41 4 -4 9
-29 11 -55 l3 -49 -63 -23 c-35 -13 -66 -26 -69 -29 -3 -3 2 -54 11 -113 26
-163 22 -152 62 -140 39 12 42 11 50 -29 6 -30 5 -31 -80 -64 -48 -18 -88 -31
-90 -29 -2 2 -7 20 -11 41 -6 31 -4 37 14 43 12 3 21 14 21 23 -1 25 -47 232
-53 239 -4 3 -25 -2 -48 -11 -44 -18 -54 -15 -62 19 -3 11 -5 -170 -6 -402
l-1 -423 2188 1 c1203 0 2183 2 2177 4 -22 8 -441 76 -615 99 -465 63 -760 79
-1132 64 -148 -6 -271 -8 -275 -5 -3 4 -1 18 5 31 10 23 8 25 -17 31 -31 7
-79 51 -67 62 3 4 -17 14 -46 23 -42 12 -53 20 -59 42 -10 39 1 108 17 108 7
0 28 13 46 29 32 28 38 29 173 36 77 4 223 2 325 -4 122 -7 187 -8 194 -1 11
11 486 14 486 4 0 -4 -23 -37 -50 -74 -35 -47 -70 -80 -114 -108 -36 -22 -72
-52 -82 -67 -17 -26 -17 -28 2 -42 17 -12 20 -12 29 3 21 35 57 74 69 74 10 0
11 -9 3 -40 -9 -33 -8 -42 8 -60 29 -32 85 -27 137 13 l43 33 15 -31 c12 -25
22 -30 56 -33 37 -3 46 2 103 53 34 30 66 55 71 55 5 0 10 -28 12 -62 3 -55 5
-63 23 -63 17 0 20 8 23 48 l3 47 79 0 78 0 -10 -34 c-23 -74 25 -126 115
-126 118 0 243 113 263 238 5 35 4 41 -15 47 -30 9 -38 1 -45 -49 -19 -125
-174 -243 -252 -191 -19 12 -24 23 -22 43 3 23 10 29 49 38 56 14 78 26 103
53 25 28 15 65 -24 81 -40 16 -73 7 -119 -35 -37 -34 -42 -35 -115 -35 -87 0
-104 18 -36 39 21 6 53 23 71 38 27 23 31 31 26 65 -3 21 -2 38 1 38 4 0 45
-7 91 -17 65 -13 88 -14 102 -5 15 10 76 2 306 -38 158 -27 291 -50 296 -50 4
0 7 -6 5 -13 -2 -7 18 -33 45 -58 26 -25 47 -55 47 -66 0 -11 9 -28 20 -38 11
-10 20 -30 20 -45 0 -21 6 -29 25 -34 40 -10 47 -44 17 -78 -14 -15 -29 -25
-33 -22 -5 3 -17 0 -26 -5 -13 -7 232 -10 785 -11 l802 0 -1 373 c0 353 -1
371 -17 348 -47 -68 -45 -67 -75 -22 -15 22 -38 48 -52 57 -22 15 -29 15 -51
3 -22 -12 -25 -17 -17 -44 4 -16 8 -70 8 -120 -1 -147 -46 -203 -157 -193 -42
4 -59 1 -85 -16 -18 -11 -33 -24 -33 -28 0 -8 30 -17 162 -53 129 -34 179 -56
211 -95 33 -39 34 -64 3 -95 -50 -50 -242 -77 -396 -55 -94 13 -143 30 -177
62 -48 45 -12 108 89 156 58 27 60 29 35 36 -39 10 -36 46 8 85 20 17 39 31
43 31 4 0 13 4 21 9 11 7 10 13 -4 35 -38 58 -10 193 52 258 32 34 85 52 125
44 26 -5 37 0 74 34 36 33 51 40 84 40 48 0 100 -20 129 -49 l21 -21 0 270 0
270 -542 0 c-422 0 -539 -3 -530 -12 25 -25 10 -129 -22 -150 -23 -16 -56 -7
-72 17 -20 31 -14 97 12 126 17 19 -19 19 -2614 19 l-2632 0 0 -211z m2645
127 c19 -8 35 -20 35 -25 0 -6 -16 -85 -35 -177 -38 -181 -42 -214 -22 -214
27 0 46 27 57 81 12 63 57 141 91 160 14 7 45 9 82 6 l60 -5 -6 56 c-5 48 -11
61 -36 83 -43 36 -41 53 6 46 65 -11 71 -25 82 -187 6 -80 11 -161 11 -181 0
-19 6 -44 14 -54 13 -18 16 -17 63 18 48 35 51 40 57 94 13 112 75 202 150
216 49 8 76 -7 76 -46 0 -41 -16 -64 -103 -154 -63 -64 -69 -74 -63 -100 10
-39 34 -63 64 -63 49 0 179 171 222 292 11 29 32 64 47 77 24 21 34 23 85 18
45 -4 60 -2 67 10 6 12 12 13 30 3 l22 -11 -27 -47 c-35 -61 -38 -64 -58 -56
-13 5 -16 13 -11 35 6 28 5 29 -28 29 -67 0 -97 -72 -57 -137 22 -36 35 -40
66 -19 47 33 208 116 226 116 15 0 18 -8 18 -44 l0 -45 116 55 c114 55 156 63
162 34 2 -11 -38 -34 -135 -80 -76 -35 -141 -66 -145 -69 -4 -4 -8 -46 -9 -95
-2 -100 11 -127 50 -107 22 12 61 79 61 106 0 17 4 18 38 9 31 -9 28 -42 -8
-91 -34 -46 -107 -87 -136 -77 -48 17 -54 32 -54 136 0 98 0 99 -22 93 -39
-12 -43 -11 -46 16 -3 22 2 27 30 35 26 8 34 16 36 37 2 15 1 27 -3 27 -9 0
-63 -28 -128 -67 l-57 -35 20 -25 c25 -32 25 -56 1 -110 -23 -50 -63 -73 -127
-73 -111 0 -115 93 -9 174 l42 32 -23 29 c-26 33 -25 34 -52 -20 -30 -61 -98
-147 -139 -177 -53 -40 -112 -39 -147 3 -14 17 -26 37 -26 45 0 22 -11 17 -69
-26 -29 -22 -61 -40 -72 -40 -31 0 -47 40 -54 137 l-7 91 -43 -87 c-51 -104
-93 -146 -139 -137 -17 4 -36 14 -43 23 -10 13 -17 14 -42 4 -16 -7 -42 -11
-57 -9 -28 3 -29 4 -29 63 0 33 4 74 8 90 7 26 0 21 -53 -37 -101 -111 -158
-133 -191 -72 -29 55 -13 138 43 221 49 73 118 92 190 53 l37 -19 5 29 c3 17
9 43 12 59 4 24 1 33 -20 46 -14 10 -23 22 -19 31 7 18 25 18 68 0z m2306 -58
c4 -12 7 -67 8 -121 l1 -98 33 17 c17 10 51 18 74 18 34 1 48 -5 70 -27 l28
-27 3 -245 c3 -268 5 -262 -55 -226 l-31 20 5 198 c5 180 4 200 -12 216 -19
19 -40 16 -90 -12 l-30 -17 -10 -196 -10 -196 -37 19 -38 19 0 366 0 366 42
-25 c24 -14 46 -36 49 -49z m-3162 -60 c-10 -29 -18 -61 -19 -71 0 -10 -7 -33
-14 -52 -16 -38 -43 -39 -48 -2 -2 18 -11 23 -44 25 -51 4 -89 -24 -103 -76
-13 -46 8 -93 61 -135 l37 -30 71 67 c92 86 114 97 142 69 l21 -21 -29 -15
c-16 -8 -56 -40 -89 -70 l-60 -54 38 -42 c32 -35 37 -48 37 -89 0 -65 -15
-112 -53 -169 -45 -67 -90 -95 -146 -91 -61 4 -86 38 -85 116 0 60 25 121 86
210 17 24 28 45 26 46 -1 2 -14 9 -26 15 -49 26 -102 83 -112 122 -30 111 83
231 201 213 36 -6 36 -6 48 40 11 43 13 46 45 46 l33 0 -18 -52z m386 28 c45
-19 48 -36 43 -212 l-4 -144 28 0 c23 0 28 -4 28 -26 0 -24 -2 -25 -47 -22
l-48 3 -3 68 -3 69 -28 -39 c-37 -51 -95 -101 -127 -109 -67 -17 -123 32 -110
98 16 87 87 142 197 153 57 6 68 10 73 28 10 39 6 58 -19 82 -26 27 -80 34
-115 15 -16 -9 -17 -14 -8 -41 19 -56 -23 -67 -58 -15 -21 34 -12 71 24 90 35
19 133 20 177 2z m2397 -58 l238 -42 -7 -55 c-3 -31 -7 -58 -9 -60 -2 -2 -38
2 -80 8 -41 7 -79 10 -82 6 -4 -3 -8 -82 -10 -176 l-4 -169 41 0 41 0 0 -49
c0 -35 -4 -51 -16 -55 -9 -3 -76 -6 -150 -6 l-134 0 0 44 c0 49 8 56 71 56
l39 0 -6 193 c-4 105 -9 195 -13 198 -3 4 -48 14 -98 24 l-93 17 0 54 c0 44 3
54 17 54 9 0 124 -19 255 -42z m-3453 -4 c6 -5 -29 -93 -39 -99 -17 -10 -39 7
-42 33 -2 21 -9 28 -30 30 -63 7 -129 -64 -106 -114 16 -35 116 -61 133 -34 3
6 15 10 26 10 16 0 19 -7 19 -45 0 -44 -1 -45 -32 -45 -74 0 -158 -67 -158
-127 0 -99 114 -105 181 -9 31 44 32 44 55 28 35 -25 29 -48 -25 -102 -53 -53
-90 -66 -167 -57 -137 15 -160 189 -37 273 l31 21 -35 12 c-99 36 -93 174 10
222 36 17 55 19 127 13 47 -3 87 -8 89 -10z m4281 -28 c0 -39 -3 -45 -26 -50
l-27 -7 8 -162 c4 -89 10 -198 13 -242 l7 -80 53 -9 c57 -10 60 -20 25 -75
-13 -20 -20 -22 -54 -17 -22 3 -56 13 -77 21 l-37 15 4 153 c1 83 0 202 -4
263 -7 110 -7 111 -31 106 -22 -4 -24 -1 -24 36 0 36 3 41 37 57 46 22 82 33
111 34 20 1 22 -4 22 -43z m-4896 -142 c12 -74 23 -114 30 -111 6 2 35 12 64
23 l54 19 -7 77 c-7 75 -6 78 16 87 70 26 62 40 88 -167 13 -103 25 -199 28
-213 4 -22 1 -27 -24 -33 -15 -4 -35 -9 -44 -12 -13 -4 -18 10 -26 81 -6 47
-13 88 -15 91 -3 2 -34 -5 -70 -16 l-65 -20 8 -42 c12 -64 12 -65 -32 -76 -30
-7 -41 -7 -44 1 -2 7 -16 93 -30 192 -15 99 -28 187 -31 196 -4 15 23 28 77
38 3 1 13 -51 23 -115z m5087 -11 c0 -65 2 -75 12 -58 7 11 26 34 44 52 39 41
92 45 127 10 22 -22 24 -34 30 -178 4 -85 12 -179 18 -209 10 -53 10 -55 -18
-77 -26 -20 -30 -21 -41 -7 -19 26 -33 135 -33 265 0 96 -4 130 -15 145 -15
19 -15 19 -31 -1 -24 -31 -87 -139 -87 -150 0 -5 3 -53 7 -106 l7 -97 -36 -22
c-20 -12 -38 -21 -40 -19 -3 4 -33 355 -38 453 -2 48 -1 49 33 62 60 21 60 21
61 -63z m-1922 -394 c64 -6 118 -13 120 -15 2 -2 -10 -19 -27 -38 -16 -19 -35
-50 -42 -70 -8 -24 -23 -42 -43 -53 -18 -9 -56 -36 -85 -60 -84 -68 -114 -51
-68 39 21 40 24 53 14 60 -21 13 -26 10 -91 -56 -68 -69 -123 -104 -139 -88
-16 16 18 119 41 127 10 3 40 25 65 49 39 35 46 48 46 79 l0 37 47 0 c26 0 99
-5 162 -11z m176 -84 c0 -18 -61 -63 -71 -52 -8 7 23 64 38 70 21 8 33 2 33
-18z m215 -104 c0 -13 -13 -24 -41 -35 -23 -9 -44 -15 -46 -12 -3 3 5 19 17
35 25 36 70 44 70 12z"/>
<path d="M3221 1075 c-29 -34 -61 -95 -61 -118 0 -14 56 39 91 87 51 69 26 94
-30 31z"/>
<path d="M2456 1049 c-40 -31 -86 -118 -86 -161 0 -73 34 -58 138 60 34 40 62
76 62 82 0 11 -52 40 -73 40 -8 0 -26 -9 -41 -21z"/>
<path d="M2788 1013 c-32 -36 -61 -109 -61 -151 0 -94 41 -69 113 70 34 64 40
82 29 89 -23 14 -65 10 -81 -8z"/>
<path d="M3485 860 c-41 -42 -48 -53 -39 -68 13 -21 46 -27 72 -13 31 17 56
79 43 107 -6 13 -14 24 -19 24 -4 0 -30 -23 -57 -50z"/>
<path d="M1627 628 c-73 -119 -80 -169 -28 -198 44 -23 121 91 121 181 0 35
-5 51 -24 68 l-24 22 -45 -73z"/>
<path d="M2042 933 c-62 -30 -105 -108 -77 -137 20 -20 28 -20 65 -1 25 13
120 131 120 149 0 12 -76 5 -108 -11z"/>
<path d="M3515 429 c-9 -14 -4 -18 33 -25 25 -5 32 -3 32 9 0 8 -10 17 -22 21
-31 8 -36 8 -43 -5z"/>
<path d="M6020 692 c-78 -79 -52 -232 40 -232 27 0 34 6 52 46 28 65 23 168
-11 195 -32 26 -48 24 -81 -9z"/>
<path d="M2575 490 c-8 -14 8 -27 43 -36 27 -7 52 10 36 26 -16 16 -71 23 -79
10z"/>
<path d="M2851 415 c-63 -29 -62 -29 -55 -10 11 26 -44 17 -92 -15 -55 -38
-145 -81 -156 -74 -5 3 8 25 28 49 36 45 38 65 4 65 -19 0 -71 -66 -90 -114
-7 -19 -6 -29 6 -41 22 -22 36 -19 115 21 l71 35 -21 -30 -22 -30 23 -12 c20
-11 25 -8 55 27 18 21 33 42 33 46 0 7 93 38 114 38 5 0 -4 -15 -22 -33 -48
-49 -40 -77 21 -77 25 0 127 65 127 81 0 22 -31 19 -63 -5 -52 -40 -53 -31 -3
25 26 29 45 57 43 63 -7 20 -61 16 -116 -9z"/>
<path d="M5871 240 c-94 -52 -114 -82 -67 -100 14 -5 92 -10 175 -12 134 -3
152 -1 168 15 17 17 17 19 -7 37 -23 18 -190 90 -208 90 -4 0 -31 -14 -61 -30z"/>
<path d="M4450 14 c-22 -12 -5 -14 145 -13 165 1 168 1 115 14 -72 18 -227 18
-260 -1z"/>
</g>
</svg>
